<?xml version="1.0" encoding="UTF-8" standalone="no"?>
<!-- Created with Inkscape (http://www.inkscape.org/) -->

<svg
   width="48"
   height="48"
   viewBox="0 0 12.7 12.7"
   version="1.1"
   id="svg5"
   xml:space="preserve"
   inkscape:version="1.2.2 (b0a8486541, 2022-12-01)"
   sodipodi:docname="themis-logo_icon.svg"
   xmlns:inkscape="http://www.inkscape.org/namespaces/inkscape"
   xmlns:sodipodi="http://sodipodi.sourceforge.net/DTD/sodipodi-0.dtd"
   xmlns="http://www.w3.org/2000/svg"
   xmlns:svg="http://www.w3.org/2000/svg"><sodipodi:namedview
     id="namedview7"
     pagecolor="#ffffff"
     bordercolor="#000000"
     borderopacity="0.25"
     inkscape:showpageshadow="2"
     inkscape:pageopacity="0.0"
     inkscape:pagecheckerboard="0"
     inkscape:deskcolor="#d1d1d1"
     inkscape:document-units="mm"
     showgrid="true"
     inkscape:zoom="7.3999484"
     inkscape:cx="4.3919225"
     inkscape:cy="24.729902"
     inkscape:window-width="1440"
     inkscape:window-height="831"
     inkscape:window-x="0"
     inkscape:window-y="0"
     inkscape:window-maximized="1"
     inkscape:current-layer="layer1"
     showguides="true"><inkscape:grid
       type="xygrid"
       id="grid16" /></sodipodi:namedview><defs
     id="defs2" /><g
     inkscape:label="logo"
     inkscape:groupmode="layer"
     id="layer1"
     inkscape:export-filename="logo_icon.png"
     inkscape:export-xdpi="1000"
     inkscape:export-ydpi="1000"><circle
       style="fill:#ffffff;stroke-width:0.264583"
       id="path322"
       cx="6.3499999"
       cy="6.3499999"
       r="6.3499999"
       inkscape:export-filename="logo_icon.svg"
       inkscape:export-xdpi="1000"
       inkscape:export-ydpi="1000" /><g
       id="g205"
       transform="matrix(0.00280232,0,0,-0.00280239,-5.4760242,16.453895)"><path
         d="m 4220,2745.7 c -493,0 -902.66,362.96 -976.12,835.83 h -440.03 c 72.2,-679.04 623.86,-1216.8 1308.97,-1268.06 v -529.7 l 952.88,804.55 c 48.65,36.02 94.84,75.12 138.47,116.91 l 3.54,2.98 -0.48,-0.09 c 234.83,226.23 392.6,531.88 428.92,873.41 H 5196.11 C 5122.66,3108.66 4712.99,2745.7 4220,2745.7"
         style="fill:#3f84cd;fill-opacity:1;fill-rule:nonzero;stroke:none"
         id="path195" /><path
         d="m 4220,4721.09 c 492.99,0 902.66,-362.95 975.93,-835.64 h 440.22 C 5560.03,4599.6 4953.89,5157.71 4220,5157.71 c -733.89,0 -1340.03,-558.11 -1416.15,-1272.26 h 440.22 c 73.27,472.69 482.93,835.64 975.93,835.64"
         style="fill:#f57d36;fill-opacity:1;fill-rule:nonzero;stroke:none"
         id="path197" /><path
         d="m 4162.65,3722.41 c 7.55,-120.2 -91.55,-219.19 -211.68,-211.57 -99.06,6.28 -179.43,86.65 -185.72,185.71 -7.62,120.13 91.37,219.24 211.57,211.68 99.14,-6.23 179.59,-86.68 185.83,-185.82 z m 126.31,-108.67 c 0,0 0,0 0.01,0.01 l 121.92,51.33 v 88.87 l -121.93,51.33 c -6.81,23.24 -16.1,45.39 -27.47,66.29 0,0.02 -0.01,0.03 -0.02,0.04 l 49.93,122.54 -62.84,62.83 -122.53,-49.92 c -0.01,0.01 -0.03,0.02 -0.05,0.03 -20.83,11.36 -43.06,20.64 -66.28,27.46 l -51.34,121.93 h -88.87 l -51.36,-121.99 c -23.23,-6.82 -45.45,-16.04 -66.29,-27.4 -0.01,-0.01 -0.02,-0.01 -0.03,-0.02 l -122.52,49.91 -62.83,-62.83 49.92,-122.54 c -11.43,-20.89 -20.64,-43.11 -27.52,-66.34 l -121.9,-51.32 v -88.87 l 121.89,-51.33 c 0,0 0,0 0.01,-0.01 6.88,-23.23 16.09,-45.44 27.51,-66.34 l -49.91,-122.52 62.83,-62.84 122.6,49.95 0.01,-0.01 c 20.84,-11.37 43.01,-20.65 66.19,-27.47 0.02,-0.01 0.04,-0.01 0.06,-0.02 l 51.34,-121.95 h 88.87 l 51.36,121.98 c 23.22,6.82 45.44,16.04 66.26,27.46 v 0 l 122.58,-49.94 62.84,62.84 -49.92,122.52 c 0,0.01 0.01,0.02 0.01,0.03 11.37,20.9 20.66,43.07 27.47,66.31"
         style="fill:#2e2d2d;fill-opacity:1;fill-rule:nonzero;stroke:none"
         id="path199" /><path
         d="m 4725.4,4122.55 c 55.32,-52.85 51.72,-141.75 -7.64,-189.97 -48.94,-39.75 -121.09,-36.87 -166.71,6.66 -55.33,52.79 -51.82,141.71 7.53,189.97 48.97,39.82 121.19,36.93 166.82,-6.66 z m 105.79,3.71 v 0 l 34.79,76.51 -38.29,41.47 -79.04,-28.57 c -13.2,7.9 -27.08,14.25 -41.38,19.1 -0.01,0 -0.02,0.01 -0.03,0.02 l -29.51,78.7 -56.4,2.25 -35.69,-76.1 c -0.01,0 -0.01,-0.01 -0.02,-0.01 -14.62,-3.67 -29,-8.91 -42.78,-15.74 l -76.5,34.79 -41.49,-38.29 28.6,-79.08 c -7.9,-13.19 -14.31,-27.07 -19.13,-41.35 0,-0.01 0,-0.02 -0.01,-0.03 l -78.69,-29.49 -2.26,-56.41 76.1,-35.69 c 3.67,-14.67 8.95,-29.01 15.75,-42.82 l -34.78,-76.48 38.29,-41.48 79,28.57 c 0.01,0 0.01,-0.01 0.01,-0.01 13.23,-7.87 27.1,-14.27 41.44,-19.1 l 29.49,-78.7 56.41,-2.26 35.7,76.15 c 0.01,0 0.01,0 0.01,0 14.63,3.67 28.98,8.89 42.74,15.7 0.01,0 0.02,0.01 0.02,0.01 l 76.52,-34.79 41.48,38.29 -28.59,79.07 c 7.91,13.19 14.31,27.06 19.1,41.37 v 0 l 78.74,29.51 2.25,56.4 -76.1,35.68 c 0,0.01 0,0.02 0,0.03 -3.7,14.65 -8.92,29 -15.75,42.78"
         style="fill:#2e2d2d;fill-opacity:1;fill-rule:nonzero;stroke:none"
         id="path201" /><path
         d="m 4641.68,3487.35 c 29.59,-44.31 13.66,-104.2 -33.99,-127.97 -39.3,-19.6 -87.91,-6.71 -112.32,29.8 -29.6,44.27 -13.74,104.18 33.93,127.99 39.31,19.64 87.97,6.73 112.38,-29.82 z m 72.47,-13.52 v 0 l 35.24,46.73 -19.73,34 -58.06,-7.44 c -7.77,7.37 -16.24,13.79 -25.23,19.26 -0.01,0.01 -0.01,0.01 -0.02,0.01 l -8.12,57.98 -38,10.08 -35.8,-46.32 c -0.01,0 -0.01,0 -0.02,0 -10.49,-0.28 -21.06,-1.67 -31.46,-4.21 l -46.73,35.24 -34,-19.74 7.45,-58.08 c -7.38,-7.77 -13.83,-16.24 -19.28,-25.21 -0.01,-0.01 -0.01,-0.01 -0.01,-0.02 l -57.97,-8.12 -10.09,-37.99 46.33,-35.8 c 0.28,-10.53 1.68,-21.08 4.21,-31.5 l -35.24,-46.71 19.73,-34.01 58.05,7.44 v 0 c 7.79,-7.36 16.26,-13.81 25.26,-19.27 l 8.13,-57.97 38,-10.09 35.81,46.35 c 0.01,0 0.01,0 0.01,0 10.5,0.28 21.04,1.65 31.42,4.19 0.01,0 0.02,0 0.03,0.01 l 46.73,-35.26 34,19.74 -7.44,58.08 c 7.38,7.77 13.82,16.23 19.26,25.23 v 0 l 57.99,8.12 10.09,38 -46.32,35.79 c 0,0.01 0,0.01 0,0.02 -0.29,10.52 -1.66,21.06 -4.22,31.47"
         style="fill:#2e2d2d;fill-opacity:1;fill-rule:nonzero;stroke:none"
         id="path203" /></g></g><g
     id="g44"
     transform="matrix(0.03527778,0,0,-0.03527778,22.7,181.95219)"
     style="display:none"><path
       d="M 1131.96,1330.3 V 1141.94 H 664.684 V 0 H 476.332 V 1141.94 H 0 L 0.894531,1330.3 H 1131.96"
       style="fill:#2e2d2d;fill-opacity:1;fill-rule:nonzero;stroke:none"
       id="path46" /><path
       d="M 1857.16,813.211 H 2512.8 V 1330.3 h 189.26 V 5.42188 H 2513.7 V 623.949 H 1857.16 Z M 1753.01,0.898438 H 1564.66 V 1332.1 h 188.35 V 0.898438"
       style="fill:#2e2d2d;fill-opacity:1;fill-rule:nonzero;stroke:none"
       id="path48" /><path
       d="M 4201.52,813.211 V 625.742 H 3469.8 V 813.211 Z M 3364.76,191.07 h 851.26 V 0.898438 H 3176.41 V 1331.2 H 4216.02 V 1141.94 H 3364.76 V 191.07"
       style="fill:#2e2d2d;fill-opacity:1;fill-rule:nonzero;stroke:none"
       id="path50" /><path
       d="M 5281.7,0 4881.43,872.07 V 0.898438 H 4691.26 L 4692.17,1332.1 h 189.26 L 5384.93,225.48 5883,1339.36 h 188.37 V 2.71875 H 5883 V 872.07 L 5489.07,0 H 5281.7"
       style="fill:#2e2d2d;fill-opacity:1;fill-rule:nonzero;stroke:none"
       id="path52" /><path
       d="M 6789.3,0.898438 H 6600.95 V 1331.2 H 6789.3 V 0.898438"
       style="fill:#2e2d2d;fill-opacity:1;fill-rule:nonzero;stroke:none"
       id="path54" /><path
       d="M 7310.73,0.898438 V 191.07 h 807.78 c 87.54,0.602 131.01,44.071 130.41,130.399 v 179.32 c 0.6,83.301 -42.87,124.953 -130.41,124.953 h -535.19 c -190.18,0 -285.26,96.297 -285.26,288.879 l 0.9,132.229 c 0,189.56 95.09,284.65 285.26,285.25 h 844.9 v -190.16 h -816.83 c -82.72,0 -124.07,-39.55 -124.07,-118.63 v -86.939 c 0,-83.332 40.15,-124.98 120.45,-124.98 h 545.16 C 8344.6,811.391 8440,723.25 8440,546.992 V 287.059 C 8439.38,96.8984 8344.01,1.51172 8153.83,0.898438 h -843.1"
       style="fill:#2e2d2d;fill-opacity:1;fill-rule:nonzero;stroke:none"
       id="path56" /><g
       id="g193"><path
         d="m 4220,2745.7 c -493,0 -902.66,362.96 -976.12,835.83 h -440.03 c 72.2,-679.04 623.86,-1216.8 1308.97,-1268.06 v -529.7 l 952.88,804.55 c 48.65,36.02 94.84,75.12 138.47,116.91 l 3.54,2.98 -0.48,-0.09 c 234.83,226.23 392.6,531.88 428.92,873.41 H 5196.11 C 5122.66,3108.66 4712.99,2745.7 4220,2745.7"
         style="fill:#3f84cd;fill-opacity:1;fill-rule:nonzero;stroke:none"
         id="path58" /><path
         d="m 4220,4721.09 c 492.99,0 902.66,-362.95 975.93,-835.64 h 440.22 C 5560.03,4599.6 4953.89,5157.71 4220,5157.71 c -733.89,0 -1340.03,-558.11 -1416.15,-1272.26 h 440.22 c 73.27,472.69 482.93,835.64 975.93,835.64"
         style="fill:#f57d36;fill-opacity:1;fill-rule:nonzero;stroke:none"
         id="path60" /><path
         d="m 4162.65,3722.41 c 7.55,-120.2 -91.55,-219.19 -211.68,-211.57 -99.06,6.28 -179.43,86.65 -185.72,185.71 -7.62,120.13 91.37,219.24 211.57,211.68 99.14,-6.23 179.59,-86.68 185.83,-185.82 z m 126.31,-108.67 c 0,0 0,0 0.01,0.01 l 121.92,51.33 v 88.87 l -121.93,51.33 c -6.81,23.24 -16.1,45.39 -27.47,66.29 0,0.02 -0.01,0.03 -0.02,0.04 l 49.93,122.54 -62.84,62.83 -122.53,-49.92 c -0.01,0.01 -0.03,0.02 -0.05,0.03 -20.83,11.36 -43.06,20.64 -66.28,27.46 l -51.34,121.93 h -88.87 l -51.36,-121.99 c -23.23,-6.82 -45.45,-16.04 -66.29,-27.4 -0.01,-0.01 -0.02,-0.01 -0.03,-0.02 l -122.52,49.91 -62.83,-62.83 49.92,-122.54 c -11.43,-20.89 -20.64,-43.11 -27.52,-66.34 l -121.9,-51.32 v -88.87 l 121.89,-51.33 c 0,0 0,0 0.01,-0.01 6.88,-23.23 16.09,-45.44 27.51,-66.34 l -49.91,-122.52 62.83,-62.84 122.6,49.95 0.01,-0.01 c 20.84,-11.37 43.01,-20.65 66.19,-27.47 0.02,-0.01 0.04,-0.01 0.06,-0.02 l 51.34,-121.95 h 88.87 l 51.36,121.98 c 23.22,6.82 45.44,16.04 66.26,27.46 v 0 l 122.58,-49.94 62.84,62.84 -49.92,122.52 c 0,0.01 0.01,0.02 0.01,0.03 11.37,20.9 20.66,43.07 27.47,66.31"
         style="fill:#2e2d2d;fill-opacity:1;fill-rule:nonzero;stroke:none"
         id="path62" /><path
         d="m 4725.4,4122.55 c 55.32,-52.85 51.72,-141.75 -7.64,-189.97 -48.94,-39.75 -121.09,-36.87 -166.71,6.66 -55.33,52.79 -51.82,141.71 7.53,189.97 48.97,39.82 121.19,36.93 166.82,-6.66 z m 105.79,3.71 v 0 l 34.79,76.51 -38.29,41.47 -79.04,-28.57 c -13.2,7.9 -27.08,14.25 -41.38,19.1 -0.01,0 -0.02,0.01 -0.03,0.02 l -29.51,78.7 -56.4,2.25 -35.69,-76.1 c -0.01,0 -0.01,-0.01 -0.02,-0.01 -14.62,-3.67 -29,-8.91 -42.78,-15.74 l -76.5,34.79 -41.49,-38.29 28.6,-79.08 c -7.9,-13.19 -14.31,-27.07 -19.13,-41.35 0,-0.01 0,-0.02 -0.01,-0.03 l -78.69,-29.49 -2.26,-56.41 76.1,-35.69 c 3.67,-14.67 8.95,-29.01 15.75,-42.82 l -34.78,-76.48 38.29,-41.48 79,28.57 c 0.01,0 0.01,-0.01 0.01,-0.01 13.23,-7.87 27.1,-14.27 41.44,-19.1 l 29.49,-78.7 56.41,-2.26 35.7,76.15 c 0.01,0 0.01,0 0.01,0 14.63,3.67 28.98,8.89 42.74,15.7 0.01,0 0.02,0.01 0.02,0.01 l 76.52,-34.79 41.48,38.29 -28.59,79.07 c 7.91,13.19 14.31,27.06 19.1,41.37 v 0 l 78.74,29.51 2.25,56.4 -76.1,35.68 c 0,0.01 0,0.02 0,0.03 -3.7,14.65 -8.92,29 -15.75,42.78"
         style="fill:#2e2d2d;fill-opacity:1;fill-rule:nonzero;stroke:none"
         id="path64" /><path
         d="m 4641.68,3487.35 c 29.59,-44.31 13.66,-104.2 -33.99,-127.97 -39.3,-19.6 -87.91,-6.71 -112.32,29.8 -29.6,44.27 -13.74,104.18 33.93,127.99 39.31,19.64 87.97,6.73 112.38,-29.82 z m 72.47,-13.52 v 0 l 35.24,46.73 -19.73,34 -58.06,-7.44 c -7.77,7.37 -16.24,13.79 -25.23,19.26 -0.01,0.01 -0.01,0.01 -0.02,0.01 l -8.12,57.98 -38,10.08 -35.8,-46.32 c -0.01,0 -0.01,0 -0.02,0 -10.49,-0.28 -21.06,-1.67 -31.46,-4.21 l -46.73,35.24 -34,-19.74 7.45,-58.08 c -7.38,-7.77 -13.83,-16.24 -19.28,-25.21 -0.01,-0.01 -0.01,-0.01 -0.01,-0.02 l -57.97,-8.12 -10.09,-37.99 46.33,-35.8 c 0.28,-10.53 1.68,-21.08 4.21,-31.5 l -35.24,-46.71 19.73,-34.01 58.05,7.44 v 0 c 7.79,-7.36 16.26,-13.81 25.26,-19.27 l 8.13,-57.97 38,-10.09 35.81,46.35 c 0.01,0 0.01,0 0.01,0 10.5,0.28 21.04,1.65 31.42,4.19 0.01,0 0.02,0 0.03,0.01 l 46.73,-35.26 34,19.74 -7.44,58.08 c 7.38,7.77 13.82,16.23 19.26,25.23 v 0 l 57.99,8.12 10.09,38 -46.32,35.79 c 0,0.01 0,0.01 0,0.02 -0.29,10.52 -1.66,21.06 -4.22,31.47"
         style="fill:#2e2d2d;fill-opacity:1;fill-rule:nonzero;stroke:none"
         id="path66" /></g></g></svg>
